<svg width="16" height="15" viewBox="0 0 16 15" fill="none" xmlns="http://www.w3.org/2000/svg">
<path d="M13.7138 11.3736L13.7047 11.3679C13.6481 11.3291 13.5999 11.2794 13.5628 11.2216C13.5258 11.1639 13.5006 11.0993 13.4889 11.0317C13.4772 10.9641 13.4792 10.8949 13.4946 10.828C13.5101 10.7612 13.5388 10.6981 13.5791 10.6426C14.361 9.28358 14.6199 7.68585 14.3071 6.14948C13.9943 4.6131 13.1313 3.24381 11.8802 2.29879C10.6291 1.35378 9.07596 0.898083 7.5126 1.01729C5.94924 1.1365 4.4832 1.82242 3.38985 2.94621C2.2965 4.06999 1.65108 5.55431 1.57482 7.12035C1.49857 8.68639 1.99673 10.2264 2.97572 11.4511C3.95472 12.6758 5.34719 13.5009 6.89157 13.7714C8.43595 14.042 10.026 13.7393 11.363 12.9203C11.5914 12.7798 11.8884 12.8404 12.0449 13.0574L12.0472 13.0585C12.0847 13.1106 12.1113 13.1697 12.1254 13.2322C12.1395 13.2948 12.1407 13.3596 12.1291 13.4227C12.1175 13.4858 12.0932 13.5458 12.0577 13.5993C12.0222 13.6527 11.9763 13.6984 11.9227 13.7336L11.8267 13.7965C10.2745 14.7296 8.43479 15.0633 6.65373 14.7347C4.87268 14.4061 3.27315 13.4378 2.15619 12.0121C1.03923 10.5864 0.481867 8.80168 0.588998 6.99373C0.696129 5.18578 1.46037 3.47933 2.73788 2.19554C4.01539 0.911747 5.71807 0.139151 7.52548 0.0231569C9.33288 -0.0928373 11.1204 0.45577 12.5515 1.56573C13.9826 2.67568 14.9587 4.27044 15.2961 6.04987C15.6334 7.82929 15.3088 9.67066 14.3832 11.2274C14.3505 11.2827 14.3066 11.3306 14.2545 11.3683C14.2024 11.4059 14.1431 11.4324 14.0803 11.4461C14.0175 11.4598 13.9526 11.4605 13.8896 11.448C13.8265 11.4355 13.7667 11.4102 13.7138 11.3736ZM5.31786 5.14576C5.42981 5.03495 5.70396 4.99497 5.83761 5.14576C6.00325 5.32053 5.94956 5.60611 5.83761 5.72605L4.1093 7.40525L5.79535 9.0022C5.90729 9.113 5.92214 9.42942 5.79535 9.55507C5.64228 9.707 5.32929 9.68301 5.22534 9.57906L3.25485 7.61543C3.20135 7.56151 3.17132 7.48863 3.17132 7.41267C3.17132 7.33671 3.20135 7.26383 3.25485 7.20991L5.31786 5.1469V5.14576ZM10.6822 5.14576L12.7452 7.20877C12.7987 7.26269 12.8287 7.33557 12.8287 7.41153C12.8287 7.48749 12.7987 7.56037 12.7452 7.61429L10.7758 9.5802C10.6719 9.68301 10.376 9.74812 10.2047 9.5802C10.0436 9.42028 10.0939 9.0913 10.2047 8.98049L11.8976 7.40753L10.1498 5.71006C10.0379 5.59011 10.0013 5.29426 10.1498 5.1469C10.2949 5.00411 10.5702 5.03609 10.6822 5.1469V5.14576ZM8.56431 4.73452C8.62028 4.58602 8.89786 4.49235 9.07492 4.55861C9.24398 4.62144 9.34336 4.85561 9.29767 5.00411L7.42428 10.1559C7.36945 10.3044 7.10215 10.3638 6.95251 10.3079C6.79373 10.253 6.62124 10.0337 6.67835 9.88634L8.56317 4.73452H8.56431Z" fill="black"/>
</svg>
