<svg width="16" height="15" viewBox="0 0 16 15" fill="none" xmlns="http://www.w3.org/2000/svg">
<path d="M15.7314 6.73293L13.3066 4.30805V1.50691C13.3066 1.00042 12.8961 0.589955 12.3889 0.589955C11.8828 0.589955 11.4724 1.00042 11.4724 1.50691V2.47392L9.66688 0.66834C8.77422 -0.22384 7.22217 -0.222257 6.33154 0.669955L0.268439 6.73293C-0.0894796 7.09156 -0.0894796 7.67184 0.268439 8.02992C0.626519 8.38845 1.20793 8.38845 1.56588 8.02992L7.62841 1.96679C7.8259 1.77032 8.174 1.77032 8.37047 1.96621L14.434 8.02992C14.6138 8.2092 14.8482 8.29838 15.0826 8.29838C15.3174 8.29838 15.5522 8.20911 15.7315 8.02992C16.0895 7.67187 16.0895 7.09159 15.7314 6.73293Z" fill="black"/>
<path d="M8.31848 3.70739C8.14233 3.53133 7.85712 3.53133 7.68148 3.70739L2.34836 9.03892C2.26417 9.12309 2.21643 9.238 2.21643 9.35792V13.2465C2.21643 14.159 2.9563 14.8989 3.86876 14.8989H6.50919V10.8097H9.4902V14.8989H12.1307C13.0431 14.8989 13.783 14.159 13.783 13.2466V9.35792C13.783 9.238 13.7356 9.12309 13.651 9.03892L8.31848 3.70739Z" fill="black"/>
</svg>
